solid OpenSCAD_Model
  facet normal -1 0 0
    outer loop
      vertex -28.5 -89.5 0.5
      vertex -28.5 -32.5 2.5
      vertex -28.5 -32.5 0.5
    endloop
  endfacet
  facet normal -1 -0 0
    outer loop
      vertex -28.5 -32.5 2.5
      vertex -28.5 -89.5 0.5
      vertex -28.5 -89.5 2.5
    endloop
  endfacet
  facet normal -0 0 1
    outer loop
      vertex -25.5 -68.5 2.5
      vertex -10.5 -71.5 2.5
      vertex -10.5 -68.5 2.5
    endloop
  endfacet
  facet normal 0 0 1
    outer loop
      vertex -10.5 -71.5 2.5
      vertex -25.5 -68.5 2.5
      vertex -25.5 -71.5 2.5
    endloop
  endfacet
  facet normal -0 0 1
    outer loop
      vertex -25.5 -50.5 2.5
      vertex -10.5 -53.5 2.5
      vertex -10.5 -50.5 2.5
    endloop
  endfacet
  facet normal 0 0 1
    outer loop
      vertex -10.5 -53.5 2.5
      vertex -25.5 -50.5 2.5
      vertex -25.5 -53.5 2.5
    endloop
  endfacet
  facet normal -0 0 1
    outer loop
      vertex -7.5 -68.5 2.5
      vertex 7.5 -71.5 2.5
      vertex 7.5 -68.5 2.5
    endloop
  endfacet
  facet normal 0 0 1
    outer loop
      vertex 7.5 -71.5 2.5
      vertex -7.5 -68.5 2.5
      vertex -7.5 -71.5 2.5
    endloop
  endfacet
  facet normal -0 0 1
    outer loop
      vertex -7.5 -50.5 2.5
      vertex 7.5 -53.5 2.5
      vertex 7.5 -50.5 2.5
    endloop
  endfacet
  facet normal 0 0 1
    outer loop
      vertex 7.5 -53.5 2.5
      vertex -7.5 -50.5 2.5
      vertex -7.5 -53.5 2.5
    endloop
  endfacet
  facet normal -0 0 1
    outer loop
      vertex 10.5 -68.5 2.5
      vertex 25.5 -71.5 2.5
      vertex 25.5 -68.5 2.5
    endloop
  endfacet
  facet normal 0 0 1
    outer loop
      vertex 25.5 -71.5 2.5
      vertex 10.5 -68.5 2.5
      vertex 10.5 -71.5 2.5
    endloop
  endfacet
  facet normal -0 0 1
    outer loop
      vertex 10.5 -50.5 2.5
      vertex 25.5 -53.5 2.5
      vertex 25.5 -50.5 2.5
    endloop
  endfacet
  facet normal 0 0 1
    outer loop
      vertex 25.5 -53.5 2.5
      vertex 10.5 -50.5 2.5
      vertex 10.5 -53.5 2.5
    endloop
  endfacet
  facet normal 0 0 1
    outer loop
      vertex 25.5 -50.5 2.5
      vertex 28.5 -32.5 2.5
      vertex 25.5 -35.5 2.5
    endloop
  endfacet
  facet normal 0 0 1
    outer loop
      vertex 28.5 -32.5 2.5
      vertex 10.5 -35.5 2.5
      vertex 25.5 -35.5 2.5
    endloop
  endfacet
  facet normal 0 0 1
    outer loop
      vertex 7.5 -50.5 2.5
      vertex 10.5 -50.5 2.5
      vertex 10.5 -35.5 2.5
    endloop
  endfacet
  facet normal 0 0 1
    outer loop
      vertex 10.5 -50.5 2.5
      vertex 7.5 -50.5 2.5
      vertex 10.5 -53.5 2.5
    endloop
  endfacet
  facet normal 0 0 1
    outer loop
      vertex 10.5 -53.5 2.5
      vertex 7.5 -53.5 2.5
      vertex 10.5 -68.5 2.5
    endloop
  endfacet
  facet normal 0 0 1
    outer loop
      vertex 7.5 -68.5 2.5
      vertex 10.5 -68.5 2.5
      vertex 7.5 -53.5 2.5
    endloop
  endfacet
  facet normal 0 0 1
    outer loop
      vertex 7.5 -50.5 2.5
      vertex 10.5 -35.5 2.5
      vertex 7.5 -35.5 2.5
    endloop
  endfacet
  facet normal 0 0 1
    outer loop
      vertex 28.5 -32.5 2.5
      vertex 7.5 -35.5 2.5
      vertex 10.5 -35.5 2.5
    endloop
  endfacet
  facet normal 0 0 1
    outer loop
      vertex 28.5 -32.5 2.5
      vertex -7.5 -35.5 2.5
      vertex 7.5 -35.5 2.5
    endloop
  endfacet
  facet normal 0 0 1
    outer loop
      vertex -10.5 -50.5 2.5
      vertex -7.5 -50.5 2.5
      vertex -7.5 -35.5 2.5
    endloop
  endfacet
  facet normal 0 0 1
    outer loop
      vertex -7.5 -50.5 2.5
      vertex -10.5 -50.5 2.5
      vertex -7.5 -53.5 2.5
    endloop
  endfacet
  facet normal 0 0 1
    outer loop
      vertex -7.5 -53.5 2.5
      vertex -10.5 -53.5 2.5
      vertex -7.5 -68.5 2.5
    endloop
  endfacet
  facet normal 0 0 1
    outer loop
      vertex -10.5 -68.5 2.5
      vertex -7.5 -68.5 2.5
      vertex -10.5 -53.5 2.5
    endloop
  endfacet
  facet normal 0 0 1
    outer loop
      vertex -10.5 -50.5 2.5
      vertex -7.5 -35.5 2.5
      vertex -10.5 -35.5 2.5
    endloop
  endfacet
  facet normal -0 0 1
    outer loop
      vertex -28.5 -32.5 2.5
      vertex -7.5 -35.5 2.5
      vertex 28.5 -32.5 2.5
    endloop
  endfacet
  facet normal 0 0 1
    outer loop
      vertex -7.5 -35.5 2.5
      vertex -28.5 -32.5 2.5
      vertex -10.5 -35.5 2.5
    endloop
  endfacet
  facet normal 0 0 1
    outer loop
      vertex -28.5 -32.5 2.5
      vertex -25.5 -50.5 2.5
      vertex -25.5 -35.5 2.5
    endloop
  endfacet
  facet normal 0 0 1
    outer loop
      vertex -25.5 -50.5 2.5
      vertex -28.5 -32.5 2.5
      vertex -25.5 -53.5 2.5
    endloop
  endfacet
  facet normal 0 0 1
    outer loop
      vertex -25.5 -53.5 2.5
      vertex -28.5 -32.5 2.5
      vertex -25.5 -68.5 2.5
    endloop
  endfacet
  facet normal 0 0 1
    outer loop
      vertex -28.5 -89.5 2.5
      vertex -25.5 -68.5 2.5
      vertex -28.5 -32.5 2.5
    endloop
  endfacet
  facet normal 0 0 1
    outer loop
      vertex -25.5 -68.5 2.5
      vertex -28.5 -89.5 2.5
      vertex -25.5 -71.5 2.5
    endloop
  endfacet
  facet normal 0 0 1
    outer loop
      vertex -10.5 -35.5 2.5
      vertex -28.5 -32.5 2.5
      vertex -25.5 -35.5 2.5
    endloop
  endfacet
  facet normal 0 0 1
    outer loop
      vertex 25.5 -53.5 2.5
      vertex 28.5 -32.5 2.5
      vertex 25.5 -50.5 2.5
    endloop
  endfacet
  facet normal 0 0 1
    outer loop
      vertex 28.5 -32.5 2.5
      vertex 25.5 -53.5 2.5
      vertex 28.5 -89.5 2.5
    endloop
  endfacet
  facet normal -0 0 1
    outer loop
      vertex 25.5 -68.5 2.5
      vertex 28.5 -89.5 2.5
      vertex 25.5 -53.5 2.5
    endloop
  endfacet
  facet normal -0 0 1
    outer loop
      vertex 25.5 -71.5 2.5
      vertex 28.5 -89.5 2.5
      vertex 25.5 -68.5 2.5
    endloop
  endfacet
  facet normal -0 0 1
    outer loop
      vertex 25.5 -86.5 2.5
      vertex 28.5 -89.5 2.5
      vertex 25.5 -71.5 2.5
    endloop
  endfacet
  facet normal -0 0 1
    outer loop
      vertex 10.5 -86.5 2.5
      vertex 28.5 -89.5 2.5
      vertex 25.5 -86.5 2.5
    endloop
  endfacet
  facet normal 0 0 1
    outer loop
      vertex 10.5 -53.5 2.5
      vertex 7.5 -50.5 2.5
      vertex 7.5 -53.5 2.5
    endloop
  endfacet
  facet normal 0 0 1
    outer loop
      vertex 10.5 -68.5 2.5
      vertex 7.5 -68.5 2.5
      vertex 10.5 -71.5 2.5
    endloop
  endfacet
  facet normal 0 0 1
    outer loop
      vertex 7.5 -71.5 2.5
      vertex 10.5 -71.5 2.5
      vertex 7.5 -68.5 2.5
    endloop
  endfacet
  facet normal 0 0 1
    outer loop
      vertex 10.5 -71.5 2.5
      vertex 7.5 -71.5 2.5
      vertex 10.5 -86.5 2.5
    endloop
  endfacet
  facet normal 0 0 1
    outer loop
      vertex 7.5 -86.5 2.5
      vertex 10.5 -86.5 2.5
      vertex 7.5 -71.5 2.5
    endloop
  endfacet
  facet normal -0 0 1
    outer loop
      vertex 7.5 -86.5 2.5
      vertex 28.5 -89.5 2.5
      vertex 10.5 -86.5 2.5
    endloop
  endfacet
  facet normal -0 0 1
    outer loop
      vertex -7.5 -86.5 2.5
      vertex 28.5 -89.5 2.5
      vertex 7.5 -86.5 2.5
    endloop
  endfacet
  facet normal 0 0 1
    outer loop
      vertex -7.5 -53.5 2.5
      vertex -10.5 -50.5 2.5
      vertex -10.5 -53.5 2.5
    endloop
  endfacet
  facet normal 0 0 1
    outer loop
      vertex -7.5 -68.5 2.5
      vertex -10.5 -68.5 2.5
      vertex -7.5 -71.5 2.5
    endloop
  endfacet
  facet normal 0 0 1
    outer loop
      vertex -10.5 -71.5 2.5
      vertex -7.5 -71.5 2.5
      vertex -10.5 -68.5 2.5
    endloop
  endfacet
  facet normal 0 0 1
    outer loop
      vertex -7.5 -71.5 2.5
      vertex -10.5 -71.5 2.5
      vertex -7.5 -86.5 2.5
    endloop
  endfacet
  facet normal 0 0 1
    outer loop
      vertex -10.5 -86.5 2.5
      vertex -7.5 -86.5 2.5
      vertex -10.5 -71.5 2.5
    endloop
  endfacet
  facet normal 0 0 1
    outer loop
      vertex -28.5 -89.5 2.5
      vertex -7.5 -86.5 2.5
      vertex -10.5 -86.5 2.5
    endloop
  endfacet
  facet normal 0 0 1
    outer loop
      vertex -28.5 -89.5 2.5
      vertex -10.5 -86.5 2.5
      vertex -25.5 -86.5 2.5
    endloop
  endfacet
  facet normal 0 0 1
    outer loop
      vertex -7.5 -86.5 2.5
      vertex -28.5 -89.5 2.5
      vertex 28.5 -89.5 2.5
    endloop
  endfacet
  facet normal 0 0 1
    outer loop
      vertex -25.5 -71.5 2.5
      vertex -28.5 -89.5 2.5
      vertex -25.5 -86.5 2.5
    endloop
  endfacet
  facet normal 1 -0 0
    outer loop
      vertex -7.5 -86.5 2.5
      vertex -7.5 -71.5 0.5
      vertex -7.5 -71.5 2.5
    endloop
  endfacet
  facet normal 1 0 0
    outer loop
      vertex -7.5 -71.5 0.5
      vertex -7.5 -86.5 2.5
      vertex -7.5 -86.5 0.5
    endloop
  endfacet
  facet normal 1 -0 0
    outer loop
      vertex -7.5 -50.5 2.5
      vertex -7.5 -35.5 0.5
      vertex -7.5 -35.5 2.5
    endloop
  endfacet
  facet normal 1 0 0
    outer loop
      vertex -7.5 -35.5 0.5
      vertex -7.5 -50.5 2.5
      vertex -7.5 -50.5 0.5
    endloop
  endfacet
  facet normal 1 -0 0
    outer loop
      vertex -7.5 -68.5 2.5
      vertex -7.5 -53.5 0.5
      vertex -7.5 -53.5 2.5
    endloop
  endfacet
  facet normal 1 0 0
    outer loop
      vertex -7.5 -53.5 0.5
      vertex -7.5 -68.5 2.5
      vertex -7.5 -68.5 0.5
    endloop
  endfacet
  facet normal 0 1 -0
    outer loop
      vertex 28.5 -32.5 0.5
      vertex -28.5 -32.5 2.5
      vertex 28.5 -32.5 2.5
    endloop
  endfacet
  facet normal 0 1 0
    outer loop
      vertex -28.5 -32.5 2.5
      vertex 28.5 -32.5 0.5
      vertex -28.5 -32.5 0.5
    endloop
  endfacet
  facet normal 0 0 1
    outer loop
      vertex 30.5 -30.5 0.5
      vertex 28.5 -32.5 0.5
      vertex 30.5 -91.5 0.5
    endloop
  endfacet
  facet normal 0 0 1
    outer loop
      vertex 30.5 -30.5 0.5
      vertex -28.5 -32.5 0.5
      vertex 28.5 -32.5 0.5
    endloop
  endfacet
  facet normal 0 0 1
    outer loop
      vertex -28.5 -32.5 0.5
      vertex -30.5 -30.5 0.5
      vertex -28.5 -89.5 0.5
    endloop
  endfacet
  facet normal -0 0 1
    outer loop
      vertex -30.5 -30.5 0.5
      vertex -28.5 -32.5 0.5
      vertex 30.5 -30.5 0.5
    endloop
  endfacet
  facet normal -0 0 1
    outer loop
      vertex 28.5 -89.5 0.5
      vertex 30.5 -91.5 0.5
      vertex 28.5 -32.5 0.5
    endloop
  endfacet
  facet normal -0 0 1
    outer loop
      vertex -28.5 -89.5 0.5
      vertex 30.5 -91.5 0.5
      vertex 28.5 -89.5 0.5
    endloop
  endfacet
  facet normal 0 0 1
    outer loop
      vertex -28.5 -89.5 0.5
      vertex -30.5 -91.5 0.5
      vertex 30.5 -91.5 0.5
    endloop
  endfacet
  facet normal 0 0 1
    outer loop
      vertex -30.5 -91.5 0.5
      vertex -28.5 -89.5 0.5
      vertex -30.5 -30.5 0.5
    endloop
  endfacet
  facet normal 0 0 1
    outer loop
      vertex 25.5 -71.5 0.5
      vertex 23 -74 0.5
      vertex 25.5 -86.5 0.5
    endloop
  endfacet
  facet normal 0 0 1
    outer loop
      vertex 25.5 -71.5 0.5
      vertex 13 -74 0.5
      vertex 23 -74 0.5
    endloop
  endfacet
  facet normal 0 0 1
    outer loop
      vertex 13 -74 0.5
      vertex 10.5 -71.5 0.5
      vertex 13 -84 0.5
    endloop
  endfacet
  facet normal -0 0 1
    outer loop
      vertex 10.5 -71.5 0.5
      vertex 13 -74 0.5
      vertex 25.5 -71.5 0.5
    endloop
  endfacet
  facet normal -0 0 1
    outer loop
      vertex 23 -84 0.5
      vertex 25.5 -86.5 0.5
      vertex 23 -74 0.5
    endloop
  endfacet
  facet normal -0 0 1
    outer loop
      vertex 13 -84 0.5
      vertex 25.5 -86.5 0.5
      vertex 23 -84 0.5
    endloop
  endfacet
  facet normal 0 0 1
    outer loop
      vertex 13 -84 0.5
      vertex 10.5 -86.5 0.5
      vertex 25.5 -86.5 0.5
    endloop
  endfacet
  facet normal 0 0 1
    outer loop
      vertex 10.5 -86.5 0.5
      vertex 13 -84 0.5
      vertex 10.5 -71.5 0.5
    endloop
  endfacet
  facet normal 0 0 1
    outer loop
      vertex 25.5 -35.5 0.5
      vertex 23 -38 0.5
      vertex 25.5 -50.5 0.5
    endloop
  endfacet
  facet normal 0 0 1
    outer loop
      vertex 25.5 -35.5 0.5
      vertex 13 -38 0.5
      vertex 23 -38 0.5
    endloop
  endfacet
  facet normal 0 0 1
    outer loop
      vertex 13 -38 0.5
      vertex 10.5 -35.5 0.5
      vertex 13 -48 0.5
    endloop
  endfacet
  facet normal -0 0 1
    outer loop
      vertex 10.5 -35.5 0.5
      vertex 13 -38 0.5
      vertex 25.5 -35.5 0.5
    endloop
  endfacet
  facet normal -0 0 1
    outer loop
      vertex 23 -48 0.5
      vertex 25.5 -50.5 0.5
      vertex 23 -38 0.5
    endloop
  endfacet
  facet normal -0 0 1
    outer loop
      vertex 13 -48 0.5
      vertex 25.5 -50.5 0.5
      vertex 23 -48 0.5
    endloop
  endfacet
  facet normal 0 0 1
    outer loop
      vertex 13 -48 0.5
      vertex 10.5 -50.5 0.5
      vertex 25.5 -50.5 0.5
    endloop
  endfacet
  facet normal 0 0 1
    outer loop
      vertex 10.5 -50.5 0.5
      vertex 13 -48 0.5
      vertex 10.5 -35.5 0.5
    endloop
  endfacet
  facet normal 0 0 1
    outer loop
      vertex 25.5 -53.5 0.5
      vertex 23 -56 0.5
      vertex 25.5 -68.5 0.5
    endloop
  endfacet
  facet normal 0 0 1
    outer loop
      vertex 25.5 -53.5 0.5
      vertex 13 -56 0.5
      vertex 23 -56 0.5
    endloop
  endfacet
  facet normal 0 0 1
    outer loop
      vertex 13 -56 0.5
      vertex 10.5 -53.5 0.5
      vertex 13 -66 0.5
    endloop
  endfacet
  facet normal -0 0 1
    outer loop
      vertex 10.5 -53.5 0.5
      vertex 13 -56 0.5
      vertex 25.5 -53.5 0.5
    endloop
  endfacet
  facet normal -0 0 1
    outer loop
      vertex 23 -66 0.5
      vertex 25.5 -68.5 0.5
      vertex 23 -56 0.5
    endloop
  endfacet
  facet normal -0 0 1
    outer loop
      vertex 13 -66 0.5
      vertex 25.5 -68.5 0.5
      vertex 23 -66 0.5
    endloop
  endfacet
  facet normal 0 0 1
    outer loop
      vertex 13 -66 0.5
      vertex 10.5 -68.5 0.5
      vertex 25.5 -68.5 0.5
    endloop
  endfacet
  facet normal 0 0 1
    outer loop
      vertex 10.5 -68.5 0.5
      vertex 13 -66 0.5
      vertex 10.5 -53.5 0.5
    endloop
  endfacet
  facet normal 0 0 1
    outer loop
      vertex -10.5 -71.5 0.5
      vertex -13 -74 0.5
      vertex -10.5 -86.5 0.5
    endloop
  endfacet
  facet normal 0 0 1
    outer loop
      vertex -10.5 -71.5 0.5
      vertex -23 -74 0.5
      vertex -13 -74 0.5
    endloop
  endfacet
  facet normal 0 0 1
    outer loop
      vertex -23 -74 0.5
      vertex -25.5 -71.5 0.5
      vertex -23 -84 0.5
    endloop
  endfacet
  facet normal -0 0 1
    outer loop
      vertex -25.5 -71.5 0.5
      vertex -23 -74 0.5
      vertex -10.5 -71.5 0.5
    endloop
  endfacet
  facet normal -0 0 1
    outer loop
      vertex -13 -84 0.5
      vertex -10.5 -86.5 0.5
      vertex -13 -74 0.5
    endloop
  endfacet
  facet normal -0 0 1
    outer loop
      vertex -23 -84 0.5
      vertex -10.5 -86.5 0.5
      vertex -13 -84 0.5
    endloop
  endfacet
  facet normal 0 0 1
    outer loop
      vertex -23 -84 0.5
      vertex -25.5 -86.5 0.5
      vertex -10.5 -86.5 0.5
    endloop
  endfacet
  facet normal 0 0 1
    outer loop
      vertex -25.5 -86.5 0.5
      vertex -23 -84 0.5
      vertex -25.5 -71.5 0.5
    endloop
  endfacet
  facet normal 0 0 1
    outer loop
      vertex -10.5 -35.5 0.5
      vertex -13 -38 0.5
      vertex -10.5 -50.5 0.5
    endloop
  endfacet
  facet normal 0 0 1
    outer loop
      vertex -10.5 -35.5 0.5
      vertex -23 -38 0.5
      vertex -13 -38 0.5
    endloop
  endfacet
  facet normal 0 0 1
    outer loop
      vertex -23 -38 0.5
      vertex -25.5 -35.5 0.5
      vertex -23 -48 0.5
    endloop
  endfacet
  facet normal -0 0 1
    outer loop
      vertex -25.5 -35.5 0.5
      vertex -23 -38 0.5
      vertex -10.5 -35.5 0.5
    endloop
  endfacet
  facet normal -0 0 1
    outer loop
      vertex -13 -48 0.5
      vertex -10.5 -50.5 0.5
      vertex -13 -38 0.5
    endloop
  endfacet
  facet normal -0 0 1
    outer loop
      vertex -23 -48 0.5
      vertex -10.5 -50.5 0.5
      vertex -13 -48 0.5
    endloop
  endfacet
  facet normal 0 0 1
    outer loop
      vertex -23 -48 0.5
      vertex -25.5 -50.5 0.5
      vertex -10.5 -50.5 0.5
    endloop
  endfacet
  facet normal 0 0 1
    outer loop
      vertex -25.5 -50.5 0.5
      vertex -23 -48 0.5
      vertex -25.5 -35.5 0.5
    endloop
  endfacet
  facet normal 0 0 1
    outer loop
      vertex -10.5 -53.5 0.5
      vertex -13 -56 0.5
      vertex -10.5 -68.5 0.5
    endloop
  endfacet
  facet normal 0 0 1
    outer loop
      vertex -10.5 -53.5 0.5
      vertex -23 -56 0.5
      vertex -13 -56 0.5
    endloop
  endfacet
  facet normal 0 0 1
    outer loop
      vertex -23 -56 0.5
      vertex -25.5 -53.5 0.5
      vertex -23 -66 0.5
    endloop
  endfacet
  facet normal -0 0 1
    outer loop
      vertex -25.5 -53.5 0.5
      vertex -23 -56 0.5
      vertex -10.5 -53.5 0.5
    endloop
  endfacet
  facet normal -0 0 1
    outer loop
      vertex -13 -66 0.5
      vertex -10.5 -68.5 0.5
      vertex -13 -56 0.5
    endloop
  endfacet
  facet normal -0 0 1
    outer loop
      vertex -23 -66 0.5
      vertex -10.5 -68.5 0.5
      vertex -13 -66 0.5
    endloop
  endfacet
  facet normal 0 0 1
    outer loop
      vertex -23 -66 0.5
      vertex -25.5 -68.5 0.5
      vertex -10.5 -68.5 0.5
    endloop
  endfacet
  facet normal 0 0 1
    outer loop
      vertex -25.5 -68.5 0.5
      vertex -23 -66 0.5
      vertex -25.5 -53.5 0.5
    endloop
  endfacet
  facet normal 0 0 1
    outer loop
      vertex 7.5 -71.5 0.5
      vertex 5 -74 0.5
      vertex 7.5 -86.5 0.5
    endloop
  endfacet
  facet normal 0 0 1
    outer loop
      vertex 7.5 -71.5 0.5
      vertex -5 -74 0.5
      vertex 5 -74 0.5
    endloop
  endfacet
  facet normal 0 0 1
    outer loop
      vertex -5 -74 0.5
      vertex -7.5 -71.5 0.5
      vertex -5 -84 0.5
    endloop
  endfacet
  facet normal -0 0 1
    outer loop
      vertex -7.5 -71.5 0.5
      vertex -5 -74 0.5
      vertex 7.5 -71.5 0.5
    endloop
  endfacet
  facet normal -0 0 1
    outer loop
      vertex 5 -84 0.5
      vertex 7.5 -86.5 0.5
      vertex 5 -74 0.5
    endloop
  endfacet
  facet normal -0 0 1
    outer loop
      vertex -5 -84 0.5
      vertex 7.5 -86.5 0.5
      vertex 5 -84 0.5
    endloop
  endfacet
  facet normal 0 0 1
    outer loop
      vertex -5 -84 0.5
      vertex -7.5 -86.5 0.5
      vertex 7.5 -86.5 0.5
    endloop
  endfacet
  facet normal 0 0 1
    outer loop
      vertex -7.5 -86.5 0.5
      vertex -5 -84 0.5
      vertex -7.5 -71.5 0.5
    endloop
  endfacet
  facet normal 0 0 1
    outer loop
      vertex 7.5 -35.5 0.5
      vertex 5 -38 0.5
      vertex 7.5 -50.5 0.5
    endloop
  endfacet
  facet normal 0 0 1
    outer loop
      vertex 7.5 -35.5 0.5
      vertex -5 -38 0.5
      vertex 5 -38 0.5
    endloop
  endfacet
  facet normal 0 0 1
    outer loop
      vertex -5 -38 0.5
      vertex -7.5 -35.5 0.5
      vertex -5 -48 0.5
    endloop
  endfacet
  facet normal -0 0 1
    outer loop
      vertex -7.5 -35.5 0.5
      vertex -5 -38 0.5
      vertex 7.5 -35.5 0.5
    endloop
  endfacet
  facet normal -0 0 1
    outer loop
      vertex 5 -48 0.5
      vertex 7.5 -50.5 0.5
      vertex 5 -38 0.5
    endloop
  endfacet
  facet normal -0 0 1
    outer loop
      vertex -5 -48 0.5
      vertex 7.5 -50.5 0.5
      vertex 5 -48 0.5
    endloop
  endfacet
  facet normal 0 0 1
    outer loop
      vertex -5 -48 0.5
      vertex -7.5 -50.5 0.5
      vertex 7.5 -50.5 0.5
    endloop
  endfacet
  facet normal 0 0 1
    outer loop
      vertex -7.5 -50.5 0.5
      vertex -5 -48 0.5
      vertex -7.5 -35.5 0.5
    endloop
  endfacet
  facet normal 0 0 1
    outer loop
      vertex 7.5 -53.5 0.5
      vertex 5 -56 0.5
      vertex 7.5 -68.5 0.5
    endloop
  endfacet
  facet normal 0 0 1
    outer loop
      vertex 7.5 -53.5 0.5
      vertex -5 -56 0.5
      vertex 5 -56 0.5
    endloop
  endfacet
  facet normal 0 0 1
    outer loop
      vertex -5 -56 0.5
      vertex -7.5 -53.5 0.5
      vertex -5 -66 0.5
    endloop
  endfacet
  facet normal -0 0 1
    outer loop
      vertex -7.5 -53.5 0.5
      vertex -5 -56 0.5
      vertex 7.5 -53.5 0.5
    endloop
  endfacet
  facet normal -0 0 1
    outer loop
      vertex 5 -66 0.5
      vertex 7.5 -68.5 0.5
      vertex 5 -56 0.5
    endloop
  endfacet
  facet normal -0 0 1
    outer loop
      vertex -5 -66 0.5
      vertex 7.5 -68.5 0.5
      vertex 5 -66 0.5
    endloop
  endfacet
  facet normal 0 0 1
    outer loop
      vertex -5 -66 0.5
      vertex -7.5 -68.5 0.5
      vertex 7.5 -68.5 0.5
    endloop
  endfacet
  facet normal 0 0 1
    outer loop
      vertex -7.5 -68.5 0.5
      vertex -5 -66 0.5
      vertex -7.5 -53.5 0.5
    endloop
  endfacet
  facet normal 0 -1 0
    outer loop
      vertex -25.5 -53.5 0.5
      vertex -10.5 -53.5 2.5
      vertex -25.5 -53.5 2.5
    endloop
  endfacet
  facet normal 0 -1 -0
    outer loop
      vertex -10.5 -53.5 2.5
      vertex -25.5 -53.5 0.5
      vertex -10.5 -53.5 0.5
    endloop
  endfacet
  facet normal 1 -0 0
    outer loop
      vertex -25.5 -50.5 2.5
      vertex -25.5 -35.5 0.5
      vertex -25.5 -35.5 2.5
    endloop
  endfacet
  facet normal 1 0 0
    outer loop
      vertex -25.5 -35.5 0.5
      vertex -25.5 -50.5 2.5
      vertex -25.5 -50.5 0.5
    endloop
  endfacet
  facet normal -1 0 0
    outer loop
      vertex -10.5 -86.5 0.5
      vertex -10.5 -71.5 2.5
      vertex -10.5 -71.5 0.5
    endloop
  endfacet
  facet normal -1 -0 0
    outer loop
      vertex -10.5 -71.5 2.5
      vertex -10.5 -86.5 0.5
      vertex -10.5 -86.5 2.5
    endloop
  endfacet
  facet normal -1 0 0
    outer loop
      vertex -10.5 -50.5 0.5
      vertex -10.5 -35.5 2.5
      vertex -10.5 -35.5 0.5
    endloop
  endfacet
  facet normal -1 -0 0
    outer loop
      vertex -10.5 -35.5 2.5
      vertex -10.5 -50.5 0.5
      vertex -10.5 -50.5 2.5
    endloop
  endfacet
  facet normal -1 0 0
    outer loop
      vertex -10.5 -68.5 0.5
      vertex -10.5 -53.5 2.5
      vertex -10.5 -53.5 0.5
    endloop
  endfacet
  facet normal -1 -0 0
    outer loop
      vertex -10.5 -53.5 2.5
      vertex -10.5 -68.5 0.5
      vertex -10.5 -68.5 2.5
    endloop
  endfacet
  facet normal 0 1 -0
    outer loop
      vertex -10.5 -50.5 0.5
      vertex -25.5 -50.5 2.5
      vertex -10.5 -50.5 2.5
    endloop
  endfacet
  facet normal 0 1 0
    outer loop
      vertex -25.5 -50.5 2.5
      vertex -10.5 -50.5 0.5
      vertex -25.5 -50.5 0.5
    endloop
  endfacet
  facet normal 0 -1 0
    outer loop
      vertex -25.5 -35.5 0.5
      vertex -10.5 -35.5 2.5
      vertex -25.5 -35.5 2.5
    endloop
  endfacet
  facet normal 0 -1 -0
    outer loop
      vertex -10.5 -35.5 2.5
      vertex -25.5 -35.5 0.5
      vertex -10.5 -35.5 0.5
    endloop
  endfacet
  facet normal 0 -1 0
    outer loop
      vertex -25.5 -71.5 0.5
      vertex -10.5 -71.5 2.5
      vertex -25.5 -71.5 2.5
    endloop
  endfacet
  facet normal 0 -1 -0
    outer loop
      vertex -10.5 -71.5 2.5
      vertex -25.5 -71.5 0.5
      vertex -10.5 -71.5 0.5
    endloop
  endfacet
  facet normal 1 -0 0
    outer loop
      vertex -25.5 -68.5 2.5
      vertex -25.5 -53.5 0.5
      vertex -25.5 -53.5 2.5
    endloop
  endfacet
  facet normal 1 0 0
    outer loop
      vertex -25.5 -53.5 0.5
      vertex -25.5 -68.5 2.5
      vertex -25.5 -68.5 0.5
    endloop
  endfacet
  facet normal 0 1 -0
    outer loop
      vertex -10.5 -68.5 0.5
      vertex -25.5 -68.5 2.5
      vertex -10.5 -68.5 2.5
    endloop
  endfacet
  facet normal 0 1 0
    outer loop
      vertex -25.5 -68.5 2.5
      vertex -10.5 -68.5 0.5
      vertex -25.5 -68.5 0.5
    endloop
  endfacet
  facet normal 0 -1 0
    outer loop
      vertex -28.5 -89.5 0.5
      vertex 28.5 -89.5 2.5
      vertex -28.5 -89.5 2.5
    endloop
  endfacet
  facet normal 0 -1 -0
    outer loop
      vertex 28.5 -89.5 2.5
      vertex -28.5 -89.5 0.5
      vertex 28.5 -89.5 0.5
    endloop
  endfacet
  facet normal 1 -0 0
    outer loop
      vertex -25.5 -86.5 2.5
      vertex -25.5 -71.5 0.5
      vertex -25.5 -71.5 2.5
    endloop
  endfacet
  facet normal 1 0 0
    outer loop
      vertex -25.5 -71.5 0.5
      vertex -25.5 -86.5 2.5
      vertex -25.5 -86.5 0.5
    endloop
  endfacet
  facet normal 0 1 -0
    outer loop
      vertex -10.5 -86.5 0.5
      vertex -25.5 -86.5 2.5
      vertex -10.5 -86.5 2.5
    endloop
  endfacet
  facet normal 0 1 0
    outer loop
      vertex -25.5 -86.5 2.5
      vertex -10.5 -86.5 0.5
      vertex -25.5 -86.5 0.5
    endloop
  endfacet
  facet normal 1 -0 0
    outer loop
      vertex 10.5 -86.5 2.5
      vertex 10.5 -71.5 0.5
      vertex 10.5 -71.5 2.5
    endloop
  endfacet
  facet normal 1 0 0
    outer loop
      vertex 10.5 -71.5 0.5
      vertex 10.5 -86.5 2.5
      vertex 10.5 -86.5 0.5
    endloop
  endfacet
  facet normal 1 -0 0
    outer loop
      vertex 10.5 -50.5 2.5
      vertex 10.5 -35.5 0.5
      vertex 10.5 -35.5 2.5
    endloop
  endfacet
  facet normal 1 0 0
    outer loop
      vertex 10.5 -35.5 0.5
      vertex 10.5 -50.5 2.5
      vertex 10.5 -50.5 0.5
    endloop
  endfacet
  facet normal 1 -0 0
    outer loop
      vertex 10.5 -68.5 2.5
      vertex 10.5 -53.5 0.5
      vertex 10.5 -53.5 2.5
    endloop
  endfacet
  facet normal 1 0 0
    outer loop
      vertex 10.5 -53.5 0.5
      vertex 10.5 -68.5 2.5
      vertex 10.5 -68.5 0.5
    endloop
  endfacet
  facet normal 0 -1 0
    outer loop
      vertex -7.5 -53.5 0.5
      vertex 7.5 -53.5 2.5
      vertex -7.5 -53.5 2.5
    endloop
  endfacet
  facet normal 0 -1 -0
    outer loop
      vertex 7.5 -53.5 2.5
      vertex -7.5 -53.5 0.5
      vertex 7.5 -53.5 0.5
    endloop
  endfacet
  facet normal -1 0 0
    outer loop
      vertex 7.5 -86.5 0.5
      vertex 7.5 -71.5 2.5
      vertex 7.5 -71.5 0.5
    endloop
  endfacet
  facet normal -1 -0 0
    outer loop
      vertex 7.5 -71.5 2.5
      vertex 7.5 -86.5 0.5
      vertex 7.5 -86.5 2.5
    endloop
  endfacet
  facet normal -1 0 0
    outer loop
      vertex 7.5 -50.5 0.5
      vertex 7.5 -35.5 2.5
      vertex 7.5 -35.5 0.5
    endloop
  endfacet
  facet normal -1 -0 0
    outer loop
      vertex 7.5 -35.5 2.5
      vertex 7.5 -50.5 0.5
      vertex 7.5 -50.5 2.5
    endloop
  endfacet
  facet normal -1 0 0
    outer loop
      vertex 7.5 -68.5 0.5
      vertex 7.5 -53.5 2.5
      vertex 7.5 -53.5 0.5
    endloop
  endfacet
  facet normal -1 -0 0
    outer loop
      vertex 7.5 -53.5 2.5
      vertex 7.5 -68.5 0.5
      vertex 7.5 -68.5 2.5
    endloop
  endfacet
  facet normal 0 1 -0
    outer loop
      vertex 7.5 -50.5 0.5
      vertex -7.5 -50.5 2.5
      vertex 7.5 -50.5 2.5
    endloop
  endfacet
  facet normal 0 1 0
    outer loop
      vertex -7.5 -50.5 2.5
      vertex 7.5 -50.5 0.5
      vertex -7.5 -50.5 0.5
    endloop
  endfacet
  facet normal 0 -1 0
    outer loop
      vertex -7.5 -35.5 0.5
      vertex 7.5 -35.5 2.5
      vertex -7.5 -35.5 2.5
    endloop
  endfacet
  facet normal 0 -1 -0
    outer loop
      vertex 7.5 -35.5 2.5
      vertex -7.5 -35.5 0.5
      vertex 7.5 -35.5 0.5
    endloop
  endfacet
  facet normal 0 -1 0
    outer loop
      vertex -7.5 -71.5 0.5
      vertex 7.5 -71.5 2.5
      vertex -7.5 -71.5 2.5
    endloop
  endfacet
  facet normal 0 -1 -0
    outer loop
      vertex 7.5 -71.5 2.5
      vertex -7.5 -71.5 0.5
      vertex 7.5 -71.5 0.5
    endloop
  endfacet
  facet normal 0 1 -0
    outer loop
      vertex 7.5 -68.5 0.5
      vertex -7.5 -68.5 2.5
      vertex 7.5 -68.5 2.5
    endloop
  endfacet
  facet normal 0 1 0
    outer loop
      vertex -7.5 -68.5 2.5
      vertex 7.5 -68.5 0.5
      vertex -7.5 -68.5 0.5
    endloop
  endfacet
  facet normal 0 1 -0
    outer loop
      vertex 7.5 -86.5 0.5
      vertex -7.5 -86.5 2.5
      vertex 7.5 -86.5 2.5
    endloop
  endfacet
  facet normal 0 1 0
    outer loop
      vertex -7.5 -86.5 2.5
      vertex 7.5 -86.5 0.5
      vertex -7.5 -86.5 0.5
    endloop
  endfacet
  facet normal 1 -0 0
    outer loop
      vertex 28.5 -89.5 2.5
      vertex 28.5 -32.5 0.5
      vertex 28.5 -32.5 2.5
    endloop
  endfacet
  facet normal 1 0 0
    outer loop
      vertex 28.5 -32.5 0.5
      vertex 28.5 -89.5 2.5
      vertex 28.5 -89.5 0.5
    endloop
  endfacet
  facet normal 0 -1 0
    outer loop
      vertex 10.5 -53.5 0.5
      vertex 25.5 -53.5 2.5
      vertex 10.5 -53.5 2.5
    endloop
  endfacet
  facet normal 0 -1 -0
    outer loop
      vertex 25.5 -53.5 2.5
      vertex 10.5 -53.5 0.5
      vertex 25.5 -53.5 0.5
    endloop
  endfacet
  facet normal -1 0 0
    outer loop
      vertex 25.5 -50.5 0.5
      vertex 25.5 -35.5 2.5
      vertex 25.5 -35.5 0.5
    endloop
  endfacet
  facet normal -1 -0 0
    outer loop
      vertex 25.5 -35.5 2.5
      vertex 25.5 -50.5 0.5
      vertex 25.5 -50.5 2.5
    endloop
  endfacet
  facet normal 0 1 -0
    outer loop
      vertex 25.5 -50.5 0.5
      vertex 10.5 -50.5 2.5
      vertex 25.5 -50.5 2.5
    endloop
  endfacet
  facet normal 0 1 0
    outer loop
      vertex 10.5 -50.5 2.5
      vertex 25.5 -50.5 0.5
      vertex 10.5 -50.5 0.5
    endloop
  endfacet
  facet normal 0 -1 0
    outer loop
      vertex 10.5 -35.5 0.5
      vertex 25.5 -35.5 2.5
      vertex 10.5 -35.5 2.5
    endloop
  endfacet
  facet normal 0 -1 -0
    outer loop
      vertex 25.5 -35.5 2.5
      vertex 10.5 -35.5 0.5
      vertex 25.5 -35.5 0.5
    endloop
  endfacet
  facet normal 0 -1 0
    outer loop
      vertex 10.5 -71.5 0.5
      vertex 25.5 -71.5 2.5
      vertex 10.5 -71.5 2.5
    endloop
  endfacet
  facet normal 0 -1 -0
    outer loop
      vertex 25.5 -71.5 2.5
      vertex 10.5 -71.5 0.5
      vertex 25.5 -71.5 0.5
    endloop
  endfacet
  facet normal -1 0 0
    outer loop
      vertex 25.5 -68.5 0.5
      vertex 25.5 -53.5 2.5
      vertex 25.5 -53.5 0.5
    endloop
  endfacet
  facet normal -1 -0 0
    outer loop
      vertex 25.5 -53.5 2.5
      vertex 25.5 -68.5 0.5
      vertex 25.5 -68.5 2.5
    endloop
  endfacet
  facet normal 0 1 -0
    outer loop
      vertex 25.5 -68.5 0.5
      vertex 10.5 -68.5 2.5
      vertex 25.5 -68.5 2.5
    endloop
  endfacet
  facet normal 0 1 0
    outer loop
      vertex 10.5 -68.5 2.5
      vertex 25.5 -68.5 0.5
      vertex 10.5 -68.5 0.5
    endloop
  endfacet
  facet normal -1 0 0
    outer loop
      vertex 25.5 -86.5 0.5
      vertex 25.5 -71.5 2.5
      vertex 25.5 -71.5 0.5
    endloop
  endfacet
  facet normal -1 -0 0
    outer loop
      vertex 25.5 -71.5 2.5
      vertex 25.5 -86.5 0.5
      vertex 25.5 -86.5 2.5
    endloop
  endfacet
  facet normal 0 1 -0
    outer loop
      vertex 25.5 -86.5 0.5
      vertex 10.5 -86.5 2.5
      vertex 25.5 -86.5 2.5
    endloop
  endfacet
  facet normal 0 1 0
    outer loop
      vertex 10.5 -86.5 2.5
      vertex 25.5 -86.5 0.5
      vertex 10.5 -86.5 0.5
    endloop
  endfacet
  facet normal -1 0 0
    outer loop
      vertex -30.5 -91.5 -2.5
      vertex -30.5 -30.5 0.5
      vertex -30.5 -30.5 -2.5
    endloop
  endfacet
  facet normal -1 -0 0
    outer loop
      vertex -30.5 -30.5 0.5
      vertex -30.5 -91.5 -2.5
      vertex -30.5 -91.5 0.5
    endloop
  endfacet
  facet normal 1 -0 0
    outer loop
      vertex 30.5 -91.5 0.5
      vertex 30.5 -30.5 -2.5
      vertex 30.5 -30.5 0.5
    endloop
  endfacet
  facet normal 1 0 0
    outer loop
      vertex 30.5 -30.5 -2.5
      vertex 30.5 -91.5 0.5
      vertex 30.5 -91.5 -2.5
    endloop
  endfacet
  facet normal 0 1 -0
    outer loop
      vertex 30.5 -30.5 -2.5
      vertex -30.5 -30.5 0.5
      vertex 30.5 -30.5 0.5
    endloop
  endfacet
  facet normal 0 1 0
    outer loop
      vertex -30.5 -30.5 0.5
      vertex 30.5 -30.5 -2.5
      vertex -30.5 -30.5 -2.5
    endloop
  endfacet
  facet normal 0 0 -1
    outer loop
      vertex -23 -56 -2.5
      vertex -13 -48 -2.5
      vertex -13 -56 -2.5
    endloop
  endfacet
  facet normal -0 0 -1
    outer loop
      vertex -13 -48 -2.5
      vertex -23 -56 -2.5
      vertex -23 -48 -2.5
    endloop
  endfacet
  facet normal 0 0 -1
    outer loop
      vertex -23 -74 -2.5
      vertex -13 -66 -2.5
      vertex -13 -74 -2.5
    endloop
  endfacet
  facet normal -0 0 -1
    outer loop
      vertex -13 -66 -2.5
      vertex -23 -74 -2.5
      vertex -23 -66 -2.5
    endloop
  endfacet
  facet normal 0 0 -1
    outer loop
      vertex -5 -56 -2.5
      vertex 5 -48 -2.5
      vertex 5 -56 -2.5
    endloop
  endfacet
  facet normal -0 0 -1
    outer loop
      vertex 5 -48 -2.5
      vertex -5 -56 -2.5
      vertex -5 -48 -2.5
    endloop
  endfacet
  facet normal 0 0 -1
    outer loop
      vertex -5 -74 -2.5
      vertex 5 -66 -2.5
      vertex 5 -74 -2.5
    endloop
  endfacet
  facet normal -0 0 -1
    outer loop
      vertex 5 -66 -2.5
      vertex -5 -74 -2.5
      vertex -5 -66 -2.5
    endloop
  endfacet
  facet normal 0 0 -1
    outer loop
      vertex 13 -56 -2.5
      vertex 23 -48 -2.5
      vertex 23 -56 -2.5
    endloop
  endfacet
  facet normal -0 0 -1
    outer loop
      vertex 23 -48 -2.5
      vertex 13 -56 -2.5
      vertex 13 -48 -2.5
    endloop
  endfacet
  facet normal 0 0 -1
    outer loop
      vertex 13 -74 -2.5
      vertex 23 -66 -2.5
      vertex 23 -74 -2.5
    endloop
  endfacet
  facet normal -0 0 -1
    outer loop
      vertex 23 -66 -2.5
      vertex 13 -74 -2.5
      vertex 13 -66 -2.5
    endloop
  endfacet
  facet normal 0 0 -1
    outer loop
      vertex 23 -74 -2.5
      vertex 30.5 -91.5 -2.5
      vertex 23 -84 -2.5
    endloop
  endfacet
  facet normal 0 0 -1
    outer loop
      vertex 30.5 -91.5 -2.5
      vertex 13 -84 -2.5
      vertex 23 -84 -2.5
    endloop
  endfacet
  facet normal 0 0 -1
    outer loop
      vertex 5 -74 -2.5
      vertex 13 -74 -2.5
      vertex 13 -84 -2.5
    endloop
  endfacet
  facet normal 0 0 -1
    outer loop
      vertex 13 -74 -2.5
      vertex 5 -74 -2.5
      vertex 13 -66 -2.5
    endloop
  endfacet
  facet normal 0 0 -1
    outer loop
      vertex 13 -66 -2.5
      vertex 5 -66 -2.5
      vertex 13 -56 -2.5
    endloop
  endfacet
  facet normal 0 0 -1
    outer loop
      vertex 5 -56 -2.5
      vertex 13 -56 -2.5
      vertex 5 -66 -2.5
    endloop
  endfacet
  facet normal 0 0 -1
    outer loop
      vertex 5 -74 -2.5
      vertex 13 -84 -2.5
      vertex 5 -84 -2.5
    endloop
  endfacet
  facet normal 0 0 -1
    outer loop
      vertex 30.5 -91.5 -2.5
      vertex 5 -84 -2.5
      vertex 13 -84 -2.5
    endloop
  endfacet
  facet normal 0 0 -1
    outer loop
      vertex 30.5 -91.5 -2.5
      vertex -5 -84 -2.5
      vertex 5 -84 -2.5
    endloop
  endfacet
  facet normal 0 0 -1
    outer loop
      vertex -13 -74 -2.5
      vertex -5 -74 -2.5
      vertex -5 -84 -2.5
    endloop
  endfacet
  facet normal 0 0 -1
    outer loop
      vertex -5 -74 -2.5
      vertex -13 -74 -2.5
      vertex -5 -66 -2.5
    endloop
  endfacet
  facet normal 0 0 -1
    outer loop
      vertex -5 -66 -2.5
      vertex -13 -66 -2.5
      vertex -5 -56 -2.5
    endloop
  endfacet
  facet normal 0 0 -1
    outer loop
      vertex -13 -56 -2.5
      vertex -5 -56 -2.5
      vertex -13 -66 -2.5
    endloop
  endfacet
  facet normal 0 0 -1
    outer loop
      vertex -13 -74 -2.5
      vertex -5 -84 -2.5
      vertex -13 -84 -2.5
    endloop
  endfacet
  facet normal 0 0 -1
    outer loop
      vertex -30.5 -91.5 -2.5
      vertex -5 -84 -2.5
      vertex 30.5 -91.5 -2.5
    endloop
  endfacet
  facet normal -0 0 -1
    outer loop
      vertex -5 -84 -2.5
      vertex -30.5 -91.5 -2.5
      vertex -13 -84 -2.5
    endloop
  endfacet
  facet normal 0 0 -1
    outer loop
      vertex -30.5 -91.5 -2.5
      vertex -23 -74 -2.5
      vertex -23 -84 -2.5
    endloop
  endfacet
  facet normal -0 0 -1
    outer loop
      vertex -23 -74 -2.5
      vertex -30.5 -91.5 -2.5
      vertex -23 -66 -2.5
    endloop
  endfacet
  facet normal -0 0 -1
    outer loop
      vertex -23 -66 -2.5
      vertex -30.5 -91.5 -2.5
      vertex -23 -56 -2.5
    endloop
  endfacet
  facet normal 0 0 -1
    outer loop
      vertex -30.5 -30.5 -2.5
      vertex -23 -56 -2.5
      vertex -30.5 -91.5 -2.5
    endloop
  endfacet
  facet normal 0 0 -1
    outer loop
      vertex -23 -56 -2.5
      vertex -30.5 -30.5 -2.5
      vertex -23 -48 -2.5
    endloop
  endfacet
  facet normal -0 0 -1
    outer loop
      vertex -13 -84 -2.5
      vertex -30.5 -91.5 -2.5
      vertex -23 -84 -2.5
    endloop
  endfacet
  facet normal 0 0 -1
    outer loop
      vertex 23 -66 -2.5
      vertex 30.5 -91.5 -2.5
      vertex 23 -74 -2.5
    endloop
  endfacet
  facet normal 0 0 -1
    outer loop
      vertex 30.5 -91.5 -2.5
      vertex 23 -66 -2.5
      vertex 30.5 -30.5 -2.5
    endloop
  endfacet
  facet normal 0 0 -1
    outer loop
      vertex 23 -56 -2.5
      vertex 30.5 -30.5 -2.5
      vertex 23 -66 -2.5
    endloop
  endfacet
  facet normal 0 0 -1
    outer loop
      vertex 23 -48 -2.5
      vertex 30.5 -30.5 -2.5
      vertex 23 -56 -2.5
    endloop
  endfacet
  facet normal 0 0 -1
    outer loop
      vertex 23 -38 -2.5
      vertex 30.5 -30.5 -2.5
      vertex 23 -48 -2.5
    endloop
  endfacet
  facet normal 0 0 -1
    outer loop
      vertex 13 -38 -2.5
      vertex 30.5 -30.5 -2.5
      vertex 23 -38 -2.5
    endloop
  endfacet
  facet normal -0 0 -1
    outer loop
      vertex 13 -66 -2.5
      vertex 5 -74 -2.5
      vertex 5 -66 -2.5
    endloop
  endfacet
  facet normal 0 0 -1
    outer loop
      vertex 13 -56 -2.5
      vertex 5 -56 -2.5
      vertex 13 -48 -2.5
    endloop
  endfacet
  facet normal 0 0 -1
    outer loop
      vertex 5 -48 -2.5
      vertex 13 -48 -2.5
      vertex 5 -56 -2.5
    endloop
  endfacet
  facet normal 0 0 -1
    outer loop
      vertex 13 -48 -2.5
      vertex 5 -48 -2.5
      vertex 13 -38 -2.5
    endloop
  endfacet
  facet normal 0 0 -1
    outer loop
      vertex 5 -38 -2.5
      vertex 13 -38 -2.5
      vertex 5 -48 -2.5
    endloop
  endfacet
  facet normal 0 0 -1
    outer loop
      vertex 5 -38 -2.5
      vertex 30.5 -30.5 -2.5
      vertex 13 -38 -2.5
    endloop
  endfacet
  facet normal 0 0 -1
    outer loop
      vertex -5 -38 -2.5
      vertex 30.5 -30.5 -2.5
      vertex 5 -38 -2.5
    endloop
  endfacet
  facet normal -0 0 -1
    outer loop
      vertex -5 -66 -2.5
      vertex -13 -74 -2.5
      vertex -13 -66 -2.5
    endloop
  endfacet
  facet normal 0 0 -1
    outer loop
      vertex -5 -56 -2.5
      vertex -13 -56 -2.5
      vertex -5 -48 -2.5
    endloop
  endfacet
  facet normal 0 0 -1
    outer loop
      vertex -13 -48 -2.5
      vertex -5 -48 -2.5
      vertex -13 -56 -2.5
    endloop
  endfacet
  facet normal 0 0 -1
    outer loop
      vertex -5 -48 -2.5
      vertex -13 -48 -2.5
      vertex -5 -38 -2.5
    endloop
  endfacet
  facet normal 0 0 -1
    outer loop
      vertex -13 -38 -2.5
      vertex -5 -38 -2.5
      vertex -13 -48 -2.5
    endloop
  endfacet
  facet normal 0 0 -1
    outer loop
      vertex -30.5 -30.5 -2.5
      vertex -5 -38 -2.5
      vertex -13 -38 -2.5
    endloop
  endfacet
  facet normal 0 0 -1
    outer loop
      vertex -30.5 -30.5 -2.5
      vertex -13 -38 -2.5
      vertex -23 -38 -2.5
    endloop
  endfacet
  facet normal 0 0 -1
    outer loop
      vertex -5 -38 -2.5
      vertex -30.5 -30.5 -2.5
      vertex 30.5 -30.5 -2.5
    endloop
  endfacet
  facet normal 0 0 -1
    outer loop
      vertex -23 -48 -2.5
      vertex -30.5 -30.5 -2.5
      vertex -23 -38 -2.5
    endloop
  endfacet
  facet normal 0 -1 0
    outer loop
      vertex -30.5 -91.5 -2.5
      vertex 30.5 -91.5 0.5
      vertex -30.5 -91.5 0.5
    endloop
  endfacet
  facet normal 0 -1 -0
    outer loop
      vertex 30.5 -91.5 0.5
      vertex -30.5 -91.5 -2.5
      vertex 30.5 -91.5 -2.5
    endloop
  endfacet
  facet normal 1 -0 0
    outer loop
      vertex -23 -48 0.5
      vertex -23 -38 -2.5
      vertex -23 -38 0.5
    endloop
  endfacet
  facet normal 1 0 0
    outer loop
      vertex -23 -38 -2.5
      vertex -23 -48 0.5
      vertex -23 -48 -2.5
    endloop
  endfacet
  facet normal -1 0 0
    outer loop
      vertex -13 -48 -2.5
      vertex -13 -38 0.5
      vertex -13 -38 -2.5
    endloop
  endfacet
  facet normal -1 -0 0
    outer loop
      vertex -13 -38 0.5
      vertex -13 -48 -2.5
      vertex -13 -48 0.5
    endloop
  endfacet
  facet normal 0 1 -0
    outer loop
      vertex -13 -48 -2.5
      vertex -23 -48 0.5
      vertex -13 -48 0.5
    endloop
  endfacet
  facet normal 0 1 0
    outer loop
      vertex -23 -48 0.5
      vertex -13 -48 -2.5
      vertex -23 -48 -2.5
    endloop
  endfacet
  facet normal 0 -1 0
    outer loop
      vertex -23 -38 -2.5
      vertex -13 -38 0.5
      vertex -23 -38 0.5
    endloop
  endfacet
  facet normal 0 -1 -0
    outer loop
      vertex -13 -38 0.5
      vertex -23 -38 -2.5
      vertex -13 -38 -2.5
    endloop
  endfacet
  facet normal 1 -0 0
    outer loop
      vertex -23 -66 0.5
      vertex -23 -56 -2.5
      vertex -23 -56 0.5
    endloop
  endfacet
  facet normal 1 0 0
    outer loop
      vertex -23 -56 -2.5
      vertex -23 -66 0.5
      vertex -23 -66 -2.5
    endloop
  endfacet
  facet normal -1 0 0
    outer loop
      vertex -13 -66 -2.5
      vertex -13 -56 0.5
      vertex -13 -56 -2.5
    endloop
  endfacet
  facet normal -1 -0 0
    outer loop
      vertex -13 -56 0.5
      vertex -13 -66 -2.5
      vertex -13 -66 0.5
    endloop
  endfacet
  facet normal 0 1 -0
    outer loop
      vertex -13 -66 -2.5
      vertex -23 -66 0.5
      vertex -13 -66 0.5
    endloop
  endfacet
  facet normal 0 1 0
    outer loop
      vertex -23 -66 0.5
      vertex -13 -66 -2.5
      vertex -23 -66 -2.5
    endloop
  endfacet
  facet normal 0 -1 0
    outer loop
      vertex -23 -56 -2.5
      vertex -13 -56 0.5
      vertex -23 -56 0.5
    endloop
  endfacet
  facet normal 0 -1 -0
    outer loop
      vertex -13 -56 0.5
      vertex -23 -56 -2.5
      vertex -13 -56 -2.5
    endloop
  endfacet
  facet normal 1 -0 0
    outer loop
      vertex -23 -84 0.5
      vertex -23 -74 -2.5
      vertex -23 -74 0.5
    endloop
  endfacet
  facet normal 1 0 0
    outer loop
      vertex -23 -74 -2.5
      vertex -23 -84 0.5
      vertex -23 -84 -2.5
    endloop
  endfacet
  facet normal -1 0 0
    outer loop
      vertex -13 -84 -2.5
      vertex -13 -74 0.5
      vertex -13 -74 -2.5
    endloop
  endfacet
  facet normal -1 -0 0
    outer loop
      vertex -13 -74 0.5
      vertex -13 -84 -2.5
      vertex -13 -84 0.5
    endloop
  endfacet
  facet normal 0 -1 0
    outer loop
      vertex -23 -74 -2.5
      vertex -13 -74 0.5
      vertex -23 -74 0.5
    endloop
  endfacet
  facet normal 0 -1 -0
    outer loop
      vertex -13 -74 0.5
      vertex -23 -74 -2.5
      vertex -13 -74 -2.5
    endloop
  endfacet
  facet normal 0 1 -0
    outer loop
      vertex -13 -84 -2.5
      vertex -23 -84 0.5
      vertex -13 -84 0.5
    endloop
  endfacet
  facet normal 0 1 0
    outer loop
      vertex -23 -84 0.5
      vertex -13 -84 -2.5
      vertex -23 -84 -2.5
    endloop
  endfacet
  facet normal 1 -0 0
    outer loop
      vertex -5 -48 0.5
      vertex -5 -38 -2.5
      vertex -5 -38 0.5
    endloop
  endfacet
  facet normal 1 0 0
    outer loop
      vertex -5 -38 -2.5
      vertex -5 -48 0.5
      vertex -5 -48 -2.5
    endloop
  endfacet
  facet normal -1 0 0
    outer loop
      vertex 5 -48 -2.5
      vertex 5 -38 0.5
      vertex 5 -38 -2.5
    endloop
  endfacet
  facet normal -1 -0 0
    outer loop
      vertex 5 -38 0.5
      vertex 5 -48 -2.5
      vertex 5 -48 0.5
    endloop
  endfacet
  facet normal 0 -1 0
    outer loop
      vertex -5 -38 -2.5
      vertex 5 -38 0.5
      vertex -5 -38 0.5
    endloop
  endfacet
  facet normal 0 -1 -0
    outer loop
      vertex 5 -38 0.5
      vertex -5 -38 -2.5
      vertex 5 -38 -2.5
    endloop
  endfacet
  facet normal 0 1 -0
    outer loop
      vertex 5 -48 -2.5
      vertex -5 -48 0.5
      vertex 5 -48 0.5
    endloop
  endfacet
  facet normal 0 1 0
    outer loop
      vertex -5 -48 0.5
      vertex 5 -48 -2.5
      vertex -5 -48 -2.5
    endloop
  endfacet
  facet normal 1 -0 0
    outer loop
      vertex -5 -66 0.5
      vertex -5 -56 -2.5
      vertex -5 -56 0.5
    endloop
  endfacet
  facet normal 1 0 0
    outer loop
      vertex -5 -56 -2.5
      vertex -5 -66 0.5
      vertex -5 -66 -2.5
    endloop
  endfacet
  facet normal -1 0 0
    outer loop
      vertex 5 -66 -2.5
      vertex 5 -56 0.5
      vertex 5 -56 -2.5
    endloop
  endfacet
  facet normal -1 -0 0
    outer loop
      vertex 5 -56 0.5
      vertex 5 -66 -2.5
      vertex 5 -66 0.5
    endloop
  endfacet
  facet normal 0 -1 0
    outer loop
      vertex -5 -56 -2.5
      vertex 5 -56 0.5
      vertex -5 -56 0.5
    endloop
  endfacet
  facet normal 0 -1 -0
    outer loop
      vertex 5 -56 0.5
      vertex -5 -56 -2.5
      vertex 5 -56 -2.5
    endloop
  endfacet
  facet normal 0 1 -0
    outer loop
      vertex 5 -66 -2.5
      vertex -5 -66 0.5
      vertex 5 -66 0.5
    endloop
  endfacet
  facet normal 0 1 0
    outer loop
      vertex -5 -66 0.5
      vertex 5 -66 -2.5
      vertex -5 -66 -2.5
    endloop
  endfacet
  facet normal 1 -0 0
    outer loop
      vertex -5 -84 0.5
      vertex -5 -74 -2.5
      vertex -5 -74 0.5
    endloop
  endfacet
  facet normal 1 0 0
    outer loop
      vertex -5 -74 -2.5
      vertex -5 -84 0.5
      vertex -5 -84 -2.5
    endloop
  endfacet
  facet normal -1 0 0
    outer loop
      vertex 5 -84 -2.5
      vertex 5 -74 0.5
      vertex 5 -74 -2.5
    endloop
  endfacet
  facet normal -1 -0 0
    outer loop
      vertex 5 -74 0.5
      vertex 5 -84 -2.5
      vertex 5 -84 0.5
    endloop
  endfacet
  facet normal 0 -1 0
    outer loop
      vertex -5 -74 -2.5
      vertex 5 -74 0.5
      vertex -5 -74 0.5
    endloop
  endfacet
  facet normal 0 -1 -0
    outer loop
      vertex 5 -74 0.5
      vertex -5 -74 -2.5
      vertex 5 -74 -2.5
    endloop
  endfacet
  facet normal 0 1 -0
    outer loop
      vertex 5 -84 -2.5
      vertex -5 -84 0.5
      vertex 5 -84 0.5
    endloop
  endfacet
  facet normal 0 1 0
    outer loop
      vertex -5 -84 0.5
      vertex 5 -84 -2.5
      vertex -5 -84 -2.5
    endloop
  endfacet
  facet normal 1 -0 0
    outer loop
      vertex 13 -48 0.5
      vertex 13 -38 -2.5
      vertex 13 -38 0.5
    endloop
  endfacet
  facet normal 1 0 0
    outer loop
      vertex 13 -38 -2.5
      vertex 13 -48 0.5
      vertex 13 -48 -2.5
    endloop
  endfacet
  facet normal -1 0 0
    outer loop
      vertex 23 -48 -2.5
      vertex 23 -38 0.5
      vertex 23 -38 -2.5
    endloop
  endfacet
  facet normal -1 -0 0
    outer loop
      vertex 23 -38 0.5
      vertex 23 -48 -2.5
      vertex 23 -48 0.5
    endloop
  endfacet
  facet normal 0 -1 0
    outer loop
      vertex 13 -38 -2.5
      vertex 23 -38 0.5
      vertex 13 -38 0.5
    endloop
  endfacet
  facet normal 0 -1 -0
    outer loop
      vertex 23 -38 0.5
      vertex 13 -38 -2.5
      vertex 23 -38 -2.5
    endloop
  endfacet
  facet normal 0 1 -0
    outer loop
      vertex 23 -48 -2.5
      vertex 13 -48 0.5
      vertex 23 -48 0.5
    endloop
  endfacet
  facet normal 0 1 0
    outer loop
      vertex 13 -48 0.5
      vertex 23 -48 -2.5
      vertex 13 -48 -2.5
    endloop
  endfacet
  facet normal 1 -0 0
    outer loop
      vertex 13 -66 0.5
      vertex 13 -56 -2.5
      vertex 13 -56 0.5
    endloop
  endfacet
  facet normal 1 0 0
    outer loop
      vertex 13 -56 -2.5
      vertex 13 -66 0.5
      vertex 13 -66 -2.5
    endloop
  endfacet
  facet normal -1 0 0
    outer loop
      vertex 23 -66 -2.5
      vertex 23 -56 0.5
      vertex 23 -56 -2.5
    endloop
  endfacet
  facet normal -1 -0 0
    outer loop
      vertex 23 -56 0.5
      vertex 23 -66 -2.5
      vertex 23 -66 0.5
    endloop
  endfacet
  facet normal 0 1 -0
    outer loop
      vertex 23 -66 -2.5
      vertex 13 -66 0.5
      vertex 23 -66 0.5
    endloop
  endfacet
  facet normal 0 1 0
    outer loop
      vertex 13 -66 0.5
      vertex 23 -66 -2.5
      vertex 13 -66 -2.5
    endloop
  endfacet
  facet normal 0 -1 0
    outer loop
      vertex 13 -56 -2.5
      vertex 23 -56 0.5
      vertex 13 -56 0.5
    endloop
  endfacet
  facet normal 0 -1 -0
    outer loop
      vertex 23 -56 0.5
      vertex 13 -56 -2.5
      vertex 23 -56 -2.5
    endloop
  endfacet
  facet normal 1 -0 0
    outer loop
      vertex 13 -84 0.5
      vertex 13 -74 -2.5
      vertex 13 -74 0.5
    endloop
  endfacet
  facet normal 1 0 0
    outer loop
      vertex 13 -74 -2.5
      vertex 13 -84 0.5
      vertex 13 -84 -2.5
    endloop
  endfacet
  facet normal -1 0 0
    outer loop
      vertex 23 -84 -2.5
      vertex 23 -74 0.5
      vertex 23 -74 -2.5
    endloop
  endfacet
  facet normal -1 -0 0
    outer loop
      vertex 23 -74 0.5
      vertex 23 -84 -2.5
      vertex 23 -84 0.5
    endloop
  endfacet
  facet normal 0 -1 0
    outer loop
      vertex 13 -74 -2.5
      vertex 23 -74 0.5
      vertex 13 -74 0.5
    endloop
  endfacet
  facet normal 0 -1 -0
    outer loop
      vertex 23 -74 0.5
      vertex 13 -74 -2.5
      vertex 23 -74 -2.5
    endloop
  endfacet
  facet normal 0 1 -0
    outer loop
      vertex 23 -84 -2.5
      vertex 13 -84 0.5
      vertex 23 -84 0.5
    endloop
  endfacet
  facet normal 0 1 0
    outer loop
      vertex 13 -84 0.5
      vertex 23 -84 -2.5
      vertex 13 -84 -2.5
    endloop
  endfacet
endsolid OpenSCAD_Model
