solid OpenSCAD_Model
  facet normal 1 -0 0
    outer loop
      vertex -6 -1.5 -2
      vertex -6 1.5 -3.5
      vertex -6 1.5 -2
    endloop
  endfacet
  facet normal 1 0 0
    outer loop
      vertex -6 1.5 -3.5
      vertex -6 -1.5 -2
      vertex -6 -1.5 -3.5
    endloop
  endfacet
  facet normal 0 0 -1
    outer loop
      vertex -6 -1.5 -2
      vertex -1.5 1.5 -2
      vertex -1.5 -1.5 -2
    endloop
  endfacet
  facet normal -0 0 -1
    outer loop
      vertex -1.5 1.5 -2
      vertex -6 -1.5 -2
      vertex -6 1.5 -2
    endloop
  endfacet
  facet normal 0 0 -1
    outer loop
      vertex -1.5 -1.5 -2
      vertex 1.5 -1.5 -2
      vertex 1.5 -6 -2
    endloop
  endfacet
  facet normal 0 0 -1
    outer loop
      vertex 1.5 -1.5 -2
      vertex -1.5 -1.5 -2
      vertex 1.5 1.5 -2
    endloop
  endfacet
  facet normal 0 0 -1
    outer loop
      vertex -1.5 -1.5 -2
      vertex 1.5 -6 -2
      vertex -1.5 -6 -2
    endloop
  endfacet
  facet normal 0 0 -1
    outer loop
      vertex -1.5 1.5 -2
      vertex 1.5 1.5 -2
      vertex -1.5 -1.5 -2
    endloop
  endfacet
  facet normal 0 0 -1
    outer loop
      vertex 1.5 1.5 -2
      vertex -1.5 1.5 -2
      vertex 1.5 6 -2
    endloop
  endfacet
  facet normal -0 0 -1
    outer loop
      vertex 1.5 6 -2
      vertex -1.5 1.5 -2
      vertex -1.5 6 -2
    endloop
  endfacet
  facet normal 0 0 -1
    outer loop
      vertex 1.5 -1.5 -2
      vertex 6 1.5 -2
      vertex 6 -1.5 -2
    endloop
  endfacet
  facet normal -0 0 -1
    outer loop
      vertex 6 1.5 -2
      vertex 1.5 -1.5 -2
      vertex 1.5 1.5 -2
    endloop
  endfacet
  facet normal -1 0 0
    outer loop
      vertex 6 -1.5 -3.5
      vertex 6 1.5 -2
      vertex 6 1.5 -3.5
    endloop
  endfacet
  facet normal -1 -0 0
    outer loop
      vertex 6 1.5 -2
      vertex 6 -1.5 -3.5
      vertex 6 -1.5 -2
    endloop
  endfacet
  facet normal 0 1 -0
    outer loop
      vertex 6 -1.5 -3.5
      vertex 1.5 -1.5 -2
      vertex 6 -1.5 -2
    endloop
  endfacet
  facet normal 0 1 0
    outer loop
      vertex 1.5 -1.5 -2
      vertex 6 -1.5 -3.5
      vertex 1.5 -1.5 -3.5
    endloop
  endfacet
  facet normal 0 1 -0
    outer loop
      vertex -1.5 -1.5 -3.5
      vertex -6 -1.5 -2
      vertex -1.5 -1.5 -2
    endloop
  endfacet
  facet normal 0 1 0
    outer loop
      vertex -6 -1.5 -2
      vertex -1.5 -1.5 -3.5
      vertex -6 -1.5 -3.5
    endloop
  endfacet
  facet normal 0 -1 0
    outer loop
      vertex 1.5 1.5 -3.5
      vertex 6 1.5 -2
      vertex 1.5 1.5 -2
    endloop
  endfacet
  facet normal 0 -1 -0
    outer loop
      vertex 6 1.5 -2
      vertex 1.5 1.5 -3.5
      vertex 6 1.5 -3.5
    endloop
  endfacet
  facet normal 0 -1 0
    outer loop
      vertex -6 1.5 -3.5
      vertex -1.5 1.5 -2
      vertex -6 1.5 -2
    endloop
  endfacet
  facet normal 0 -1 -0
    outer loop
      vertex -1.5 1.5 -2
      vertex -6 1.5 -3.5
      vertex -1.5 1.5 -3.5
    endloop
  endfacet
  facet normal 1 -0 0
    outer loop
      vertex -1.5 -6 -2
      vertex -1.5 -1.5 -3.5
      vertex -1.5 -1.5 -2
    endloop
  endfacet
  facet normal 1 0 0
    outer loop
      vertex -1.5 -1.5 -3.5
      vertex -1.5 -6 -2
      vertex -1.5 -6 -3.5
    endloop
  endfacet
  facet normal 1 -0 0
    outer loop
      vertex -1.5 1.5 -2
      vertex -1.5 6 -3.5
      vertex -1.5 6 -2
    endloop
  endfacet
  facet normal 1 0 0
    outer loop
      vertex -1.5 6 -3.5
      vertex -1.5 1.5 -2
      vertex -1.5 1.5 -3.5
    endloop
  endfacet
  facet normal -1 0 0
    outer loop
      vertex 1.5 -6 -3.5
      vertex 1.5 -1.5 -2
      vertex 1.5 -1.5 -3.5
    endloop
  endfacet
  facet normal -1 -0 0
    outer loop
      vertex 1.5 -1.5 -2
      vertex 1.5 -6 -3.5
      vertex 1.5 -6 -2
    endloop
  endfacet
  facet normal -1 0 0
    outer loop
      vertex 1.5 1.5 -3.5
      vertex 1.5 6 -2
      vertex 1.5 6 -3.5
    endloop
  endfacet
  facet normal -1 -0 0
    outer loop
      vertex 1.5 6 -2
      vertex 1.5 1.5 -3.5
      vertex 1.5 1.5 -2
    endloop
  endfacet
  facet normal 0 1 -0
    outer loop
      vertex 1.5 -6 -3.5
      vertex -1.5 -6 -2
      vertex 1.5 -6 -2
    endloop
  endfacet
  facet normal 0 1 0
    outer loop
      vertex -1.5 -6 -2
      vertex 1.5 -6 -3.5
      vertex -1.5 -6 -3.5
    endloop
  endfacet
  facet normal 0 -1 0
    outer loop
      vertex -1.5 6 -3.5
      vertex 1.5 6 -2
      vertex -1.5 6 -2
    endloop
  endfacet
  facet normal 0 -1 -0
    outer loop
      vertex 1.5 6 -2
      vertex -1.5 6 -3.5
      vertex 1.5 6 -3.5
    endloop
  endfacet
  facet normal -1 0 0
    outer loop
      vertex -7.425 -7.425 -3.5
      vertex -7.425 7.425 3.5
      vertex -7.425 7.425 -3.5
    endloop
  endfacet
  facet normal -1 -0 0
    outer loop
      vertex -7.425 7.425 3.5
      vertex -7.425 -7.425 -3.5
      vertex -7.425 -7.425 3.5
    endloop
  endfacet
  facet normal 0 0 1
    outer loop
      vertex 7.425 7.425 3.5
      vertex 6 0 3.5
      vertex 7.425 -7.425 3.5
    endloop
  endfacet
  facet normal 0 0 1
    outer loop
      vertex 7.425 7.425 3.5
      vertex 5.6749 1.9482 3.5
      vertex 6 0 3.5
    endloop
  endfacet
  facet normal 0 0 1
    outer loop
      vertex 7.425 7.425 3.5
      vertex 4.73484 3.68528 3.5
      vertex 5.6749 1.9482 3.5
    endloop
  endfacet
  facet normal 0 0 1
    outer loop
      vertex 7.425 7.425 3.5
      vertex 3.28169 5.023 3.5
      vertex 4.73484 3.68528 3.5
    endloop
  endfacet
  facet normal 0 0 1
    outer loop
      vertex 7.425 7.425 3.5
      vertex 1.47291 5.8164 3.5
      vertex 3.28169 5.023 3.5
    endloop
  endfacet
  facet normal 0 0 1
    outer loop
      vertex 7.425 7.425 3.5
      vertex -0.495476 5.97951 3.5
      vertex 1.47291 5.8164 3.5
    endloop
  endfacet
  facet normal 0 0 1
    outer loop
      vertex -5.91817 0.987567 3.5
      vertex -7.425 7.425 3.5
      vertex -5.91817 -0.987567 3.5
    endloop
  endfacet
  facet normal 0 0 1
    outer loop
      vertex -5.27684 2.85568 3.5
      vertex -7.425 7.425 3.5
      vertex -5.91817 0.987567 3.5
    endloop
  endfacet
  facet normal 0 0 1
    outer loop
      vertex -4.06369 4.41434 3.5
      vertex -7.425 7.425 3.5
      vertex -5.27684 2.85568 3.5
    endloop
  endfacet
  facet normal 0 0 1
    outer loop
      vertex -2.41017 5.49464 3.5
      vertex -7.425 7.425 3.5
      vertex -4.06369 4.41434 3.5
    endloop
  endfacet
  facet normal 0 0 1
    outer loop
      vertex -0.495476 5.97951 3.5
      vertex -7.425 7.425 3.5
      vertex -2.41017 5.49464 3.5
    endloop
  endfacet
  facet normal -0 0 1
    outer loop
      vertex -7.425 7.425 3.5
      vertex -0.495476 5.97951 3.5
      vertex 7.425 7.425 3.5
    endloop
  endfacet
  facet normal -0 0 1
    outer loop
      vertex 5.6749 -1.9482 3.5
      vertex 7.425 -7.425 3.5
      vertex 6 0 3.5
    endloop
  endfacet
  facet normal -0 0 1
    outer loop
      vertex 4.73484 -3.68528 3.5
      vertex 7.425 -7.425 3.5
      vertex 5.6749 -1.9482 3.5
    endloop
  endfacet
  facet normal -0 0 1
    outer loop
      vertex 3.28169 -5.023 3.5
      vertex 7.425 -7.425 3.5
      vertex 4.73484 -3.68528 3.5
    endloop
  endfacet
  facet normal -0 0 1
    outer loop
      vertex 1.47291 -5.8164 3.5
      vertex 7.425 -7.425 3.5
      vertex 3.28169 -5.023 3.5
    endloop
  endfacet
  facet normal -0 0 1
    outer loop
      vertex -0.495476 -5.97951 3.5
      vertex 7.425 -7.425 3.5
      vertex 1.47291 -5.8164 3.5
    endloop
  endfacet
  facet normal 0 0 1
    outer loop
      vertex -0.495476 -5.97951 3.5
      vertex -7.425 -7.425 3.5
      vertex 7.425 -7.425 3.5
    endloop
  endfacet
  facet normal 0 0 1
    outer loop
      vertex -2.41017 -5.49464 3.5
      vertex -7.425 -7.425 3.5
      vertex -0.495476 -5.97951 3.5
    endloop
  endfacet
  facet normal 0 0 1
    outer loop
      vertex -4.06369 -4.41434 3.5
      vertex -7.425 -7.425 3.5
      vertex -2.41017 -5.49464 3.5
    endloop
  endfacet
  facet normal 0 0 1
    outer loop
      vertex -5.27684 -2.85568 3.5
      vertex -7.425 -7.425 3.5
      vertex -4.06369 -4.41434 3.5
    endloop
  endfacet
  facet normal 0 0 1
    outer loop
      vertex -5.91817 -0.987567 3.5
      vertex -7.425 -7.425 3.5
      vertex -5.27684 -2.85568 3.5
    endloop
  endfacet
  facet normal 0 0 1
    outer loop
      vertex -7.425 -7.425 3.5
      vertex -5.91817 -0.987567 3.5
      vertex -7.425 7.425 3.5
    endloop
  endfacet
  facet normal 1 -0 0
    outer loop
      vertex 7.425 -7.425 3.5
      vertex 7.425 7.425 -3.5
      vertex 7.425 7.425 3.5
    endloop
  endfacet
  facet normal 1 0 0
    outer loop
      vertex 7.425 7.425 -3.5
      vertex 7.425 -7.425 3.5
      vertex 7.425 -7.425 -3.5
    endloop
  endfacet
  facet normal 0 0 -1
    outer loop
      vertex -1.5 1.5 -3.5
      vertex -6 1.5 -3.5
      vertex -1.5 6 -3.5
    endloop
  endfacet
  facet normal 0 0 -1
    outer loop
      vertex 7.425 -7.425 -3.5
      vertex 6 -1.5 -3.5
      vertex 7.425 7.425 -3.5
    endloop
  endfacet
  facet normal 0 0 -1
    outer loop
      vertex 7.425 -7.425 -3.5
      vertex 1.5 -6 -3.5
      vertex 6 -1.5 -3.5
    endloop
  endfacet
  facet normal 0 0 -1
    outer loop
      vertex 7.425 -7.425 -3.5
      vertex -1.5 -6 -3.5
      vertex 1.5 -6 -3.5
    endloop
  endfacet
  facet normal 0 0 -1
    outer loop
      vertex -1.5 -6 -3.5
      vertex -6 -1.5 -3.5
      vertex -1.5 -1.5 -3.5
    endloop
  endfacet
  facet normal -0 0 -1
    outer loop
      vertex -6 -1.5 -3.5
      vertex -7.425 -7.425 -3.5
      vertex -6 1.5 -3.5
    endloop
  endfacet
  facet normal -0 0 -1
    outer loop
      vertex -1.5 -6 -3.5
      vertex -7.425 -7.425 -3.5
      vertex -6 -1.5 -3.5
    endloop
  endfacet
  facet normal 0 0 -1
    outer loop
      vertex -7.425 -7.425 -3.5
      vertex -1.5 -6 -3.5
      vertex 7.425 -7.425 -3.5
    endloop
  endfacet
  facet normal 0 0 -1
    outer loop
      vertex 6 1.5 -3.5
      vertex 7.425 7.425 -3.5
      vertex 6 -1.5 -3.5
    endloop
  endfacet
  facet normal 0 0 -1
    outer loop
      vertex 1.5 6 -3.5
      vertex 6 1.5 -3.5
      vertex 1.5 1.5 -3.5
    endloop
  endfacet
  facet normal 0 0 -1
    outer loop
      vertex 6 1.5 -3.5
      vertex 1.5 6 -3.5
      vertex 7.425 7.425 -3.5
    endloop
  endfacet
  facet normal 0 0 -1
    outer loop
      vertex -1.5 6 -3.5
      vertex 7.425 7.425 -3.5
      vertex 1.5 6 -3.5
    endloop
  endfacet
  facet normal 0 0 -1
    outer loop
      vertex -1.5 6 -3.5
      vertex -7.425 7.425 -3.5
      vertex 7.425 7.425 -3.5
    endloop
  endfacet
  facet normal 0 0 -1
    outer loop
      vertex -6 1.5 -3.5
      vertex -7.425 7.425 -3.5
      vertex -1.5 6 -3.5
    endloop
  endfacet
  facet normal 0 0 -1
    outer loop
      vertex -7.425 7.425 -3.5
      vertex -6 1.5 -3.5
      vertex -7.425 -7.425 -3.5
    endloop
  endfacet
  facet normal -0 0 -1
    outer loop
      vertex 6 -1.5 -3.5
      vertex 1.5 -6 -3.5
      vertex 1.5 -1.5 -3.5
    endloop
  endfacet
  facet normal 0 -1 0
    outer loop
      vertex -7.425 -7.425 -3.5
      vertex 7.425 -7.425 3.5
      vertex -7.425 -7.425 3.5
    endloop
  endfacet
  facet normal 0 -1 -0
    outer loop
      vertex 7.425 -7.425 3.5
      vertex -7.425 -7.425 -3.5
      vertex 7.425 -7.425 -3.5
    endloop
  endfacet
  facet normal 0 1 -0
    outer loop
      vertex 7.425 7.425 -3.5
      vertex -7.425 7.425 3.5
      vertex 7.425 7.425 3.5
    endloop
  endfacet
  facet normal 0 1 0
    outer loop
      vertex -7.425 7.425 3.5
      vertex 7.425 7.425 -3.5
      vertex -7.425 7.425 -3.5
    endloop
  endfacet
  facet normal -0.986361 -0.164596 0
    outer loop
      vertex 6 0 3
      vertex 5.6749 1.9482 3.5
      vertex 5.6749 1.9482 3
    endloop
  endfacet
  facet normal -0.986361 -0.164596 0
    outer loop
      vertex 5.6749 1.9482 3.5
      vertex 6 0 3
      vertex 6 0 3.5
    endloop
  endfacet
  facet normal 1 -0 0
    outer loop
      vertex -5.91817 -0.987567 3.5
      vertex -5.91817 0.987567 3
      vertex -5.91817 0.987567 3.5
    endloop
  endfacet
  facet normal 1 0 0
    outer loop
      vertex -5.91817 0.987567 3
      vertex -5.91817 -0.987567 3.5
      vertex -5.91817 -0.987567 3
    endloop
  endfacet
  facet normal -0.401694 -0.915774 0
    outer loop
      vertex 1.47291 5.8164 3
      vertex 3.28169 5.023 3.5
      vertex 1.47291 5.8164 3.5
    endloop
  endfacet
  facet normal -0.401694 -0.915774 -0
    outer loop
      vertex 3.28169 5.023 3.5
      vertex 1.47291 5.8164 3
      vertex 3.28169 5.023 3
    endloop
  endfacet
  facet normal -0.401694 0.915774 0
    outer loop
      vertex 3.28169 -5.023 3
      vertex 1.47291 -5.8164 3.5
      vertex 3.28169 -5.023 3.5
    endloop
  endfacet
  facet normal -0.401694 0.915774 0
    outer loop
      vertex 1.47291 -5.8164 3.5
      vertex 3.28169 -5.023 3
      vertex 1.47291 -5.8164 3
    endloop
  endfacet
  facet normal 0.245487 0.9694 -0
    outer loop
      vertex -0.495476 -5.97951 3
      vertex -2.41017 -5.49464 3.5
      vertex -0.495476 -5.97951 3.5
    endloop
  endfacet
  facet normal 0.245487 0.9694 0
    outer loop
      vertex -2.41017 -5.49464 3.5
      vertex -0.495476 -5.97951 3
      vertex -2.41017 -5.49464 3
    endloop
  endfacet
  facet normal -0.677282 -0.735724 0
    outer loop
      vertex 3.28169 5.023 3
      vertex 4.73484 3.68528 3.5
      vertex 3.28169 5.023 3.5
    endloop
  endfacet
  facet normal -0.677282 -0.735724 -0
    outer loop
      vertex 4.73484 3.68528 3.5
      vertex 3.28169 5.023 3
      vertex 4.73484 3.68528 3
    endloop
  endfacet
  facet normal -0.879474 -0.475947 0
    outer loop
      vertex 5.6749 1.9482 3
      vertex 4.73484 3.68528 3.5
      vertex 4.73484 3.68528 3
    endloop
  endfacet
  facet normal -0.879474 -0.475947 0
    outer loop
      vertex 4.73484 3.68528 3.5
      vertex 5.6749 1.9482 3
      vertex 5.6749 1.9482 3.5
    endloop
  endfacet
  facet normal -0.0825818 -0.996584 0
    outer loop
      vertex -0.495476 5.97951 3
      vertex 1.47291 5.8164 3.5
      vertex -0.495476 5.97951 3.5
    endloop
  endfacet
  facet normal -0.0825818 -0.996584 -0
    outer loop
      vertex 1.47291 5.8164 3.5
      vertex -0.495476 5.97951 3
      vertex 1.47291 5.8164 3
    endloop
  endfacet
  facet normal 0.245487 -0.9694 0
    outer loop
      vertex -2.41017 5.49464 3
      vertex -0.495476 5.97951 3.5
      vertex -2.41017 5.49464 3.5
    endloop
  endfacet
  facet normal 0.245487 -0.9694 0
    outer loop
      vertex -0.495476 5.97951 3.5
      vertex -2.41017 5.49464 3
      vertex -0.495476 5.97951 3
    endloop
  endfacet
  facet normal 0.945816 0.324702 0
    outer loop
      vertex -5.27684 -2.85568 3.5
      vertex -5.91817 -0.987567 3
      vertex -5.91817 -0.987567 3.5
    endloop
  endfacet
  facet normal 0.945816 0.324702 0
    outer loop
      vertex -5.91817 -0.987567 3
      vertex -5.27684 -2.85568 3.5
      vertex -5.27684 -2.85568 3
    endloop
  endfacet
  facet normal 0.546949 0.837166 -0
    outer loop
      vertex -2.41017 -5.49464 3
      vertex -4.06369 -4.41434 3.5
      vertex -2.41017 -5.49464 3.5
    endloop
  endfacet
  facet normal 0.546949 0.837166 0
    outer loop
      vertex -4.06369 -4.41434 3.5
      vertex -2.41017 -5.49464 3
      vertex -4.06369 -4.41434 3
    endloop
  endfacet
  facet normal 0 0 1
    outer loop
      vertex 5.6749 1.9482 3
      vertex 5.6749 -1.9482 3
      vertex 6 0 3
    endloop
  endfacet
  facet normal 0 0 1
    outer loop
      vertex 4.73484 3.68528 3
      vertex 5.6749 -1.9482 3
      vertex 5.6749 1.9482 3
    endloop
  endfacet
  facet normal 0 0 1
    outer loop
      vertex 4.73484 3.68528 3
      vertex 4.73484 -3.68528 3
      vertex 5.6749 -1.9482 3
    endloop
  endfacet
  facet normal 0 0 1
    outer loop
      vertex 3.28169 5.023 3
      vertex 4.73484 -3.68528 3
      vertex 4.73484 3.68528 3
    endloop
  endfacet
  facet normal 0 0 1
    outer loop
      vertex 3.28169 5.023 3
      vertex 3.28169 -5.023 3
      vertex 4.73484 -3.68528 3
    endloop
  endfacet
  facet normal 0 0 1
    outer loop
      vertex 1.47291 5.8164 3
      vertex 3.28169 -5.023 3
      vertex 3.28169 5.023 3
    endloop
  endfacet
  facet normal 0 0 1
    outer loop
      vertex 1.47291 5.8164 3
      vertex 1.47291 -5.8164 3
      vertex 3.28169 -5.023 3
    endloop
  endfacet
  facet normal 0 0 1
    outer loop
      vertex -0.495476 5.97951 3
      vertex 1.47291 -5.8164 3
      vertex 1.47291 5.8164 3
    endloop
  endfacet
  facet normal 0 0 1
    outer loop
      vertex -0.495476 5.97951 3
      vertex -0.495476 -5.97951 3
      vertex 1.47291 -5.8164 3
    endloop
  endfacet
  facet normal -0 0 1
    outer loop
      vertex -2.41017 5.49464 3
      vertex -0.495476 -5.97951 3
      vertex -0.495476 5.97951 3
    endloop
  endfacet
  facet normal 0 0 1
    outer loop
      vertex -2.41017 5.49464 3
      vertex -2.41017 -5.49464 3
      vertex -0.495476 -5.97951 3
    endloop
  endfacet
  facet normal -0 0 1
    outer loop
      vertex -4.06369 4.41434 3
      vertex -2.41017 -5.49464 3
      vertex -2.41017 5.49464 3
    endloop
  endfacet
  facet normal 0 0 1
    outer loop
      vertex -4.06369 4.41434 3
      vertex -4.06369 -4.41434 3
      vertex -2.41017 -5.49464 3
    endloop
  endfacet
  facet normal -0 0 1
    outer loop
      vertex -5.27684 2.85568 3
      vertex -4.06369 -4.41434 3
      vertex -4.06369 4.41434 3
    endloop
  endfacet
  facet normal 0 0 1
    outer loop
      vertex -5.27684 2.85568 3
      vertex -5.27684 -2.85568 3
      vertex -4.06369 -4.41434 3
    endloop
  endfacet
  facet normal -0 0 1
    outer loop
      vertex -5.91817 0.987567 3
      vertex -5.27684 -2.85568 3
      vertex -5.27684 2.85568 3
    endloop
  endfacet
  facet normal 0 0 1
    outer loop
      vertex -5.27684 -2.85568 3
      vertex -5.91817 0.987567 3
      vertex -5.91817 -0.987567 3
    endloop
  endfacet
  facet normal 0.789141 0.614212 0
    outer loop
      vertex -4.06369 -4.41434 3.5
      vertex -5.27684 -2.85568 3
      vertex -5.27684 -2.85568 3.5
    endloop
  endfacet
  facet normal 0.789141 0.614212 0
    outer loop
      vertex -5.27684 -2.85568 3
      vertex -4.06369 -4.41434 3.5
      vertex -4.06369 -4.41434 3
    endloop
  endfacet
  facet normal 0.945816 -0.324702 0
    outer loop
      vertex -5.91817 0.987567 3.5
      vertex -5.27684 2.85568 3
      vertex -5.27684 2.85568 3.5
    endloop
  endfacet
  facet normal 0.945816 -0.324702 0
    outer loop
      vertex -5.27684 2.85568 3
      vertex -5.91817 0.987567 3.5
      vertex -5.91817 0.987567 3
    endloop
  endfacet
  facet normal 0.546949 -0.837166 0
    outer loop
      vertex -4.06369 4.41434 3
      vertex -2.41017 5.49464 3.5
      vertex -4.06369 4.41434 3.5
    endloop
  endfacet
  facet normal 0.546949 -0.837166 0
    outer loop
      vertex -2.41017 5.49464 3.5
      vertex -4.06369 4.41434 3
      vertex -2.41017 5.49464 3
    endloop
  endfacet
  facet normal 0.789141 -0.614212 0
    outer loop
      vertex -5.27684 2.85568 3.5
      vertex -4.06369 4.41434 3
      vertex -4.06369 4.41434 3.5
    endloop
  endfacet
  facet normal 0.789141 -0.614212 0
    outer loop
      vertex -4.06369 4.41434 3
      vertex -5.27684 2.85568 3.5
      vertex -5.27684 2.85568 3
    endloop
  endfacet
  facet normal -0.677282 0.735724 0
    outer loop
      vertex 4.73484 -3.68528 3
      vertex 3.28169 -5.023 3.5
      vertex 4.73484 -3.68528 3.5
    endloop
  endfacet
  facet normal -0.677282 0.735724 0
    outer loop
      vertex 3.28169 -5.023 3.5
      vertex 4.73484 -3.68528 3
      vertex 3.28169 -5.023 3
    endloop
  endfacet
  facet normal -0.986361 0.164596 0
    outer loop
      vertex 5.6749 -1.9482 3
      vertex 6 0 3.5
      vertex 6 0 3
    endloop
  endfacet
  facet normal -0.986361 0.164596 0
    outer loop
      vertex 6 0 3.5
      vertex 5.6749 -1.9482 3
      vertex 5.6749 -1.9482 3.5
    endloop
  endfacet
  facet normal -0.0825818 0.996584 0
    outer loop
      vertex 1.47291 -5.8164 3
      vertex -0.495476 -5.97951 3.5
      vertex 1.47291 -5.8164 3.5
    endloop
  endfacet
  facet normal -0.0825818 0.996584 0
    outer loop
      vertex -0.495476 -5.97951 3.5
      vertex 1.47291 -5.8164 3
      vertex -0.495476 -5.97951 3
    endloop
  endfacet
  facet normal -0.879474 0.475947 0
    outer loop
      vertex 4.73484 -3.68528 3
      vertex 5.6749 -1.9482 3.5
      vertex 5.6749 -1.9482 3
    endloop
  endfacet
  facet normal -0.879474 0.475947 0
    outer loop
      vertex 5.6749 -1.9482 3.5
      vertex 4.73484 -3.68528 3
      vertex 4.73484 -3.68528 3.5
    endloop
  endfacet
endsolid OpenSCAD_Model
